<?xml version="1.0" encoding="UTF-8"?>
<svg xmlns="http://www.w3.org/2000/svg" xmlns:xlink="http://www.w3.org/1999/xlink" width="48px" height="48px" viewBox="0 0 48 48" version="1.1">
<defs>
<linearGradient id="linear0" gradientUnits="userSpaceOnUse" x1="857.323975" y1="988.719971" x2="844.893005" y2="962.815979" gradientTransform="matrix(0.0234375,0,0,0.0234375,0,0)">
<stop offset="0" style="stop-color:rgb(3.529412%,16.862745%,17.254902%);stop-opacity:1;"/>
<stop offset="1" style="stop-color:rgb(27.843137%,9.803922%,39.607843%);stop-opacity:1;"/>
</linearGradient>
<linearGradient id="linear1" gradientUnits="userSpaceOnUse" x1="883.30603" y1="982.137024" x2="873.401001" y2="959.379028" gradientTransform="matrix(0.0234375,0,0,0.0234375,0,0)">
<stop offset="0" style="stop-color:rgb(47.843137%,21.568627%,76.862745%);stop-opacity:1;"/>
<stop offset="1" style="stop-color:rgb(79.607843%,2.745098%,93.333333%);stop-opacity:1;"/>
</linearGradient>
<linearGradient id="linear2" gradientUnits="userSpaceOnUse" x1="1062.699951" y1="1061.780029" x2="1094.969971" y2="1069.369995" gradientTransform="matrix(0.0234375,0,0,0.0234375,0,0)">
<stop offset="0" style="stop-color:rgb(21.960784%,21.176471%,51.372549%);stop-opacity:1;"/>
<stop offset="1" style="stop-color:rgb(48.235294%,12.54902%,74.509804%);stop-opacity:1;"/>
</linearGradient>
<linearGradient id="linear3" gradientUnits="userSpaceOnUse" x1="1009.070007" y1="1050.390015" x2="931.976013" y2="1093.030029" gradientTransform="matrix(0.0234375,0,0,0.0234375,0,0)">
<stop offset="0" style="stop-color:rgb(53.333333%,13.333333%,80.784314%);stop-opacity:1;"/>
<stop offset="1" style="stop-color:rgb(79.607843%,6.666667%,98.039216%);stop-opacity:1;"/>
</linearGradient>
<linearGradient id="linear4" gradientUnits="userSpaceOnUse" x1="1255.72998" y1="1154.859985" x2="1279.819946" y2="1110.130005" gradientTransform="matrix(0.0234375,0,0,0.0234375,0,0)">
<stop offset="0" style="stop-color:rgb(0%,39.215686%,50.196078%);stop-opacity:1;"/>
<stop offset="1" style="stop-color:rgb(0%,47.45098%,63.137255%);stop-opacity:1;"/>
</linearGradient>
</defs>
<g id="surface1">
<rect x="0" y="0" width="48" height="48" style="fill:rgb(99.607843%,99.607843%,99.607843%);fill-opacity:1;stroke:none;"/>
<path style=" stroke:none;fill-rule:nonzero;fill:rgb(9.803922%,15.686275%,20.392157%);fill-opacity:1;" d="M 23.007812 0.902344 C 23.054688 0.898438 23.101562 0.898438 23.148438 0.894531 C 29.230469 0.660156 35.164062 2.839844 39.648438 6.957031 C 44.039062 11.003906 46.613281 16.644531 46.792969 22.609375 C 47.242188 34.792969 37.230469 45.519531 25.050781 45.945312 C 25.011719 45.949219 24.976562 45.949219 24.9375 45.953125 C 18.953125 46.199219 13.109375 44.066406 8.691406 40.019531 C 4.214844 35.984375 1.53125 30.332031 1.230469 24.3125 C 0.960938 18.460938 3.015625 12.738281 6.941406 8.386719 C 11.152344 3.746094 16.769531 1.203125 23.007812 0.902344 Z M 23.007812 0.902344 "/>
<path style=" stroke:none;fill-rule:nonzero;fill:rgb(12.54902%,83.137256%,29.803923%);fill-opacity:1;" d="M 23.121094 5.589844 C 23.367188 5.570312 23.679688 5.570312 23.929688 5.570312 C 27.707031 5.515625 31.34375 6.984375 34.023438 9.644531 C 36.753906 12.339844 38.214844 16.082031 38.238281 19.898438 C 38.261719 22.230469 37.730469 24.53125 36.695312 26.621094 C 35.765625 28.492188 34.585938 29.898438 33.253906 31.480469 C 32.429688 32.4375 31.636719 33.441406 30.800781 34.386719 C 29.226562 36.164062 27.714844 37.996094 26.117188 39.757812 C 25.617188 40.304688 25.175781 40.941406 24.652344 41.472656 C 24.269531 41.785156 23.839844 41.871094 23.449219 41.511719 C 23.230469 41.308594 23.027344 41.070312 22.832031 40.84375 C 19.972656 37.546875 17.101562 34.261719 14.296875 30.917969 C 13.738281 30.253906 13.183594 29.601562 12.675781 28.898438 C 11.007812 26.585938 9.953125 23.859375 9.785156 20.996094 C 9.519531 17.074219 10.828125 13.210938 13.417969 10.253906 C 15.898438 7.46875 19.390625 5.785156 23.121094 5.589844 Z M 23.121094 5.589844 "/>
<path style=" stroke:none;fill-rule:nonzero;fill:rgb(2.352941%,19.607843%,25.098041%);fill-opacity:1;" d="M 23.875 6.691406 C 23.984375 6.6875 24.09375 6.683594 24.203125 6.683594 C 27.648438 6.71875 30.945312 8.117188 33.363281 10.574219 C 35.867188 13.136719 37.238281 16.597656 37.164062 20.175781 C 37.125 22.738281 36.375 25.234375 34.996094 27.390625 C 34.160156 28.707031 33.007812 30.082031 32 31.277344 C 30.847656 32.644531 29.683594 34.003906 28.503906 35.347656 L 25.417969 38.902344 C 25.046875 39.324219 24.507812 39.988281 24.128906 40.355469 C 23.851562 40.511719 23.566406 40.019531 23.40625 39.824219 C 23.222656 39.597656 23.03125 39.378906 22.835938 39.160156 L 19.601562 35.449219 L 16.035156 31.285156 C 15.121094 30.210938 14.242188 29.160156 13.410156 28.011719 C 8.574219 21.332031 10.75 11.476562 18.339844 7.949219 C 20.179688 7.09375 21.824219 6.753906 23.875 6.691406 Z M 23.875 6.691406 "/>
<path style=" stroke:none;fill-rule:nonzero;fill:rgb(7.058824%,95.686275%,98.823529%);fill-opacity:1;" d="M 13.347656 26.085938 C 12.835938 26.089844 12.535156 26.03125 12.40625 25.46875 C 12.335938 25.171875 12.34375 24.875 12.347656 24.566406 C 12.363281 23.800781 12.355469 22.953125 12.761719 22.277344 C 13.246094 21.507812 14.554688 21.230469 15.398438 21.035156 C 15.773438 20.945312 16.144531 20.914062 16.523438 20.785156 C 16.984375 20.628906 17.253906 20.34375 17.632812 20.046875 C 17.929688 19.820312 18.230469 19.601562 18.539062 19.394531 C 18.851562 19.191406 19.496094 18.800781 19.839844 18.71875 C 20.898438 18.480469 22.019531 18.523438 23.097656 18.515625 C 24.191406 18.503906 25.261719 18.515625 26.347656 18.644531 C 27.179688 18.742188 27.820312 19.019531 28.554688 19.410156 C 28.628906 19.449219 28.933594 19.617188 28.992188 19.601562 C 29.085938 19.453125 29.050781 18.882812 29.046875 18.667969 L 29.046875 16.242188 C 29.046875 15.441406 28.859375 13.960938 29.886719 13.871094 C 30.648438 13.800781 31.5625 13.851562 32.335938 13.839844 C 32.722656 13.832031 33.84375 13.78125 34.113281 13.972656 C 34.910156 14.546875 34.367188 16.320312 34.582031 17.140625 C 34.648438 17.203125 35.058594 17.28125 35.230469 17.382812 C 35.476562 17.53125 35.722656 17.820312 35.765625 18.113281 C 35.878906 18.847656 35.816406 19.726562 35.832031 20.476562 C 35.8125 21.058594 35.855469 21.644531 35.808594 22.222656 C 35.738281 23.109375 35.300781 23.316406 34.546875 23.484375 L 34.550781 25.164062 C 34.550781 25.4375 34.5625 25.761719 34.53125 26.03125 C 34.519531 26.140625 34.386719 26.210938 34.296875 26.265625 C 33.351562 26.285156 32.402344 26.296875 31.457031 26.296875 L 31.5625 25.890625 C 32.402344 25.855469 33.242188 25.835938 34.082031 25.832031 L 34.082031 16.109375 C 34.082031 15.691406 34.097656 15.257812 34.066406 14.839844 C 34.054688 14.667969 33.984375 14.527344 33.824219 14.453125 C 33.714844 14.476562 33.648438 14.445312 33.539062 14.421875 C 33.390625 14.394531 33.222656 14.425781 33.070312 14.429688 C 32.109375 14.441406 31.140625 14.449219 30.179688 14.40625 C 30.0625 14.402344 29.898438 14.492188 29.773438 14.5 C 29.644531 14.605469 29.5625 14.792969 29.558594 14.960938 C 29.523438 16.554688 29.542969 18.152344 29.542969 19.746094 C 29.542969 19.796875 29.546875 19.929688 29.585938 19.957031 C 29.972656 20.261719 30.433594 20.550781 30.851562 20.8125 C 31.101562 20.96875 31.507812 21.011719 31.757812 21.210938 C 32.539062 21.851562 32.433594 23.308594 32.433594 24.222656 C 32.433594 24.652344 32.277344 25.121094 31.933594 25.359375 C 31.914062 25.15625 32.027344 24.710938 32.011719 24.425781 C 31.941406 24.34375 31.902344 23.792969 31.75 23.5 C 31.742188 23.621094 31.765625 23.722656 31.835938 23.820312 C 31.832031 23.90625 31.84375 23.867188 31.792969 23.9375 C 31.707031 23.976562 31.746094 23.976562 31.667969 23.953125 C 31.609375 23.835938 31.632812 23.761719 31.574219 23.679688 L 31.554688 23.675781 C 31.378906 23.335938 31.269531 23.21875 30.898438 23.078125 C 30.722656 23.117188 30.609375 23.148438 30.464844 23.269531 C 29.660156 23.960938 30.234375 26.144531 28.753906 26.105469 C 28.667969 26.097656 28.507812 26.101562 28.417969 26.097656 C 28.210938 26.101562 27.398438 26.097656 27.242188 26.125 C 27.28125 26.140625 27.269531 26.125 27.285156 26.164062 C 27.199219 26.222656 26.789062 26.191406 26.675781 26.179688 L 26.652344 26.136719 C 26.457031 26.140625 25.394531 26.144531 25.289062 26.175781 C 25.117188 26.175781 24.929688 26.183594 24.757812 26.1875 L 24.640625 26.183594 C 24.402344 26.210938 24.03125 26.203125 23.785156 26.203125 C 23.867188 26.03125 23.882812 25.960938 23.902344 25.777344 L 23.917969 25.714844 C 23.957031 25.316406 23.941406 24.777344 23.910156 24.378906 C 23.859375 24.082031 23.8125 23.917969 23.703125 23.640625 C 23.507812 23.328125 23.308594 23.132812 22.960938 22.996094 C 21.523438 23.316406 21.777344 24.746094 21.304688 25.800781 C 21.261719 25.894531 21.09375 26.039062 21.027344 26.121094 L 21.023438 26.152344 C 20.824219 26.285156 20.714844 26.203125 20.597656 26.261719 C 20.546875 26.25 20.390625 26.246094 20.328125 26.246094 C 20.003906 26.140625 19.421875 26.265625 18.996094 26.183594 C 18.234375 26.132812 17.414062 26.128906 16.652344 26.136719 C 16.449219 26.441406 16.191406 26.699219 15.886719 26.902344 C 15.859375 26.917969 15.832031 26.929688 15.804688 26.941406 C 15.394531 27.128906 14.597656 27.121094 14.179688 26.953125 C 13.761719 26.785156 13.519531 26.488281 13.347656 26.085938 Z M 13.347656 26.085938 "/>
<path style=" stroke:none;fill-rule:nonzero;fill:rgb(2.352941%,19.607843%,25.098041%);fill-opacity:1;" d="M 29.507812 21.726562 C 29.78125 21.734375 29.894531 21.65625 30.148438 21.652344 C 30.453125 21.652344 31.21875 21.636719 31.476562 21.667969 C 31.632812 21.839844 31.664062 21.917969 31.746094 22.132812 C 32.042969 22.597656 32.019531 23.875 32.011719 24.425781 C 31.941406 24.34375 31.902344 23.792969 31.75 23.5 C 31.742188 23.621094 31.765625 23.722656 31.835938 23.820312 C 31.832031 23.90625 31.84375 23.867188 31.792969 23.9375 C 31.707031 23.976562 31.746094 23.976562 31.667969 23.953125 C 31.609375 23.835938 31.632812 23.761719 31.574219 23.679688 L 31.554688 23.675781 C 31.378906 23.335938 31.269531 23.21875 30.898438 23.078125 C 30.722656 23.117188 30.609375 23.148438 30.464844 23.269531 C 29.660156 23.960938 30.234375 26.144531 28.753906 26.105469 C 28.667969 26.097656 28.507812 26.101562 28.417969 26.097656 C 28.210938 26.101562 27.398438 26.097656 27.242188 26.125 C 27.28125 26.140625 27.269531 26.125 27.285156 26.164062 C 27.199219 26.222656 26.789062 26.191406 26.675781 26.179688 L 26.652344 26.136719 C 26.457031 26.140625 25.394531 26.144531 25.289062 26.175781 C 25.117188 26.175781 24.929688 26.183594 24.757812 26.1875 L 24.640625 26.183594 C 24.402344 26.210938 24.03125 26.203125 23.785156 26.203125 C 23.867188 26.03125 23.882812 25.960938 23.902344 25.777344 L 23.917969 25.714844 C 23.957031 25.316406 23.941406 24.777344 23.910156 24.378906 C 23.859375 24.082031 23.8125 23.917969 23.703125 23.640625 C 23.886719 23.609375 23.910156 23.636719 23.917969 23.46875 C 23.617188 22.914062 23.4375 22.84375 22.875 22.597656 C 21.800781 22.792969 21.429688 23.488281 21.1875 24.5 C 21.0625 25.027344 21.132812 25.421875 20.683594 25.804688 C 20.382812 25.710938 18.773438 25.714844 18.371094 25.707031 L 14.265625 25.644531 C 13.875 25.632812 13.464844 25.675781 13.078125 25.628906 C 12.917969 25.613281 12.851562 25.382812 12.8125 25.25 C 12.789062 25.152344 12.785156 25.113281 12.773438 25.015625 C 12.730469 24.371094 12.773438 23.726562 12.851562 23.082031 C 13.027344 23.226562 13.109375 23.296875 13.316406 23.394531 L 13.5 23.320312 C 13.542969 23.222656 13.59375 23.125 13.636719 23.03125 C 13.601562 23.03125 13.570312 23.03125 13.535156 23.03125 C 13.34375 23.039062 13.320312 23.035156 13.148438 22.941406 C 13.078125 22.886719 13.078125 22.882812 13.03125 22.808594 C 13.074219 22.71875 13.007812 22.742188 13.097656 22.679688 L 13.167969 22.699219 C 13.210938 22.746094 13.234375 22.785156 13.292969 22.808594 C 13.363281 22.753906 13.332031 22.785156 13.375 22.691406 L 13.390625 22.679688 C 13.574219 22.582031 13.6875 22.566406 13.882812 22.542969 L 13.945312 22.582031 C 14.089844 22.558594 14.488281 22.570312 14.652344 22.574219 L 15.980469 22.585938 C 16.457031 22.585938 16.9375 22.59375 17.414062 22.609375 C 17.527344 22.609375 17.851562 22.613281 17.941406 22.628906 C 18.226562 22.785156 19.007812 22.472656 19.21875 22.558594 C 19.03125 22.625 19.046875 22.492188 18.8125 22.722656 L 18.730469 22.734375 L 18.753906 22.769531 C 19.054688 22.710938 19.351562 22.652344 19.652344 22.59375 C 19.925781 22.542969 20.203125 22.488281 20.476562 22.441406 C 20.507812 22.269531 20.515625 22.179688 20.617188 22.042969 C 20.917969 21.882812 21.546875 21.75 21.882812 21.734375 C 23.742188 21.65625 25.636719 21.734375 27.496094 21.738281 C 28.1875 21.746094 28.773438 21.703125 29.507812 21.726562 Z M 29.507812 21.726562 "/>
<path style=" stroke:none;fill-rule:nonzero;fill:rgb(7.058824%,95.686275%,98.823529%);fill-opacity:1;" d="M 30.769531 22.628906 C 31.25 22.765625 31.609375 22.992188 31.75 23.5 C 31.742188 23.621094 31.765625 23.722656 31.835938 23.820312 C 31.832031 23.90625 31.84375 23.867188 31.792969 23.9375 C 31.707031 23.976562 31.746094 23.976562 31.667969 23.953125 C 31.609375 23.835938 31.632812 23.761719 31.574219 23.679688 L 31.554688 23.675781 C 31.378906 23.335938 31.269531 23.21875 30.898438 23.078125 C 30.722656 23.117188 30.609375 23.148438 30.464844 23.269531 C 29.660156 23.960938 30.234375 26.144531 28.753906 26.105469 C 28.667969 26.097656 28.507812 26.101562 28.417969 26.097656 C 28.210938 26.101562 27.398438 26.097656 27.242188 26.125 C 27.28125 26.140625 27.269531 26.125 27.285156 26.164062 C 27.199219 26.222656 26.789062 26.191406 26.675781 26.179688 L 26.652344 26.136719 C 26.457031 26.140625 25.394531 26.144531 25.289062 26.175781 C 25.117188 26.175781 24.929688 26.183594 24.757812 26.1875 L 24.640625 26.183594 C 24.402344 26.210938 24.03125 26.203125 23.785156 26.203125 C 23.867188 26.03125 23.882812 25.960938 23.902344 25.777344 L 24.109375 25.777344 C 24.273438 25.78125 24.335938 25.785156 24.5 25.761719 C 24.949219 25.773438 25.664062 25.738281 26.136719 25.726562 C 27.066406 25.699219 27.996094 25.683594 28.925781 25.683594 C 29.308594 25.472656 29.355469 25.234375 29.441406 24.835938 C 29.53125 24.410156 29.597656 23.988281 29.746094 23.582031 C 29.949219 23.027344 30.253906 22.84375 30.769531 22.628906 Z M 30.769531 22.628906 "/>
<path style=" stroke:none;fill-rule:nonzero;fill:rgb(3.137255%,71.372551%,81.176472%);fill-opacity:1;" d="M 23.902344 25.777344 L 24.109375 25.777344 C 24.082031 25.90625 24.039062 26.007812 24.101562 26.125 C 24.222656 26.21875 24.453125 26.160156 24.640625 26.183594 C 24.402344 26.210938 24.03125 26.203125 23.785156 26.203125 C 23.867188 26.03125 23.882812 25.960938 23.902344 25.777344 Z M 23.902344 25.777344 "/>
<path style=" stroke:none;fill-rule:nonzero;fill:rgb(2.352941%,19.607843%,25.098041%);fill-opacity:1;" d="M 26.652344 26.136719 L 27.242188 26.125 C 27.28125 26.140625 27.269531 26.125 27.285156 26.164062 C 27.199219 26.222656 26.789062 26.191406 26.675781 26.179688 Z M 26.652344 26.136719 "/>
<path style=" stroke:none;fill-rule:nonzero;fill:rgb(92.54902%,13.725491%,96.470588%);fill-opacity:1;" d="M 20.617188 22.042969 C 20.917969 21.882812 21.546875 21.75 21.882812 21.734375 C 23.742188 21.65625 25.636719 21.734375 27.496094 21.738281 C 27.480469 21.828125 27.460938 21.839844 27.488281 21.910156 L 27.503906 22.136719 C 27.089844 22.113281 26.511719 22.125 26.089844 22.125 L 23.28125 22.121094 C 22.996094 22.0625 21.644531 22.101562 21.371094 22.207031 C 21.0625 22.269531 20.777344 22.355469 20.476562 22.441406 C 20.507812 22.269531 20.515625 22.179688 20.617188 22.042969 Z M 20.617188 22.042969 "/>
<path style=" stroke:none;fill-rule:nonzero;fill:rgb(89.803922%,8.235294%,95.686275%);fill-opacity:1;" d="M 17.941406 22.628906 C 18.226562 22.785156 19.007812 22.472656 19.21875 22.558594 C 19.03125 22.625 19.046875 22.492188 18.8125 22.722656 L 18.730469 22.734375 L 18.753906 22.769531 L 18.234375 22.871094 L 18.316406 22.957031 L 18.1875 22.980469 C 18.238281 23.007812 18.3125 23.046875 18.371094 23.054688 C 18.527344 23.074219 18.617188 23.078125 18.773438 23.082031 C 18.691406 23.164062 18.636719 23.253906 18.675781 23.378906 C 18.113281 23.4375 17.882812 23.074219 17.503906 23.03125 C 17.089844 22.984375 16.511719 23.039062 16.050781 22.996094 C 15.339844 23 14.324219 22.945312 13.648438 23.011719 L 13.636719 23.03125 C 13.601562 23.03125 13.570312 23.03125 13.535156 23.03125 C 13.34375 23.039062 13.320312 23.035156 13.148438 22.941406 C 13.078125 22.886719 13.078125 22.882812 13.03125 22.808594 C 13.074219 22.71875 13.007812 22.742188 13.097656 22.679688 L 13.167969 22.699219 C 13.210938 22.746094 13.234375 22.785156 13.292969 22.808594 C 13.363281 22.753906 13.332031 22.785156 13.375 22.691406 L 13.390625 22.679688 C 13.574219 22.582031 13.6875 22.566406 13.882812 22.542969 L 13.945312 22.582031 C 14.089844 22.558594 14.488281 22.570312 14.652344 22.574219 L 15.980469 22.585938 C 16.457031 22.585938 16.9375 22.59375 17.414062 22.609375 C 17.527344 22.609375 17.851562 22.613281 17.941406 22.628906 Z M 17.941406 22.628906 "/>
<path style=" stroke:none;fill-rule:nonzero;fill:rgb(68.627453%,10.588235%,92.941177%);fill-opacity:1;" d="M 16.050781 22.996094 C 16.507812 22.960938 17.035156 23.03125 17.496094 22.984375 C 17.53125 22.980469 17.570312 22.917969 17.597656 22.882812 L 17.617188 22.851562 C 17.828125 22.867188 18.242188 22.875 18.433594 22.777344 C 18.53125 22.726562 18.613281 22.644531 18.746094 22.632812 L 18.773438 22.660156 C 18.710938 22.691406 18.679688 22.707031 18.621094 22.742188 L 18.730469 22.734375 L 18.753906 22.769531 L 18.234375 22.871094 L 18.316406 22.957031 L 18.1875 22.980469 C 18.238281 23.007812 18.3125 23.046875 18.371094 23.054688 C 18.527344 23.074219 18.617188 23.078125 18.773438 23.082031 C 18.691406 23.164062 18.636719 23.253906 18.675781 23.378906 C 18.113281 23.4375 17.882812 23.074219 17.503906 23.03125 C 17.089844 22.984375 16.511719 23.039062 16.050781 22.996094 Z M 16.050781 22.996094 "/>
<path style=" stroke:none;fill-rule:nonzero;fill:rgb(35.686275%,12.54902%,54.11765%);fill-opacity:1;" d="M 18.1875 22.980469 C 18.105469 22.96875 18.101562 22.96875 18.023438 22.933594 C 18.070312 22.890625 18.164062 22.886719 18.234375 22.871094 L 18.316406 22.957031 Z M 18.1875 22.980469 "/>
<path style=" stroke:none;fill-rule:nonzero;fill:rgb(92.54902%,13.725491%,96.470588%);fill-opacity:1;" d="M 13.148438 22.941406 L 13.222656 22.929688 L 13.25 22.859375 L 13.300781 22.847656 C 13.320312 22.875 13.332031 22.894531 13.355469 22.921875 L 13.378906 22.925781 C 13.492188 22.929688 13.523438 22.96875 13.609375 22.972656 L 13.648438 23.011719 L 13.636719 23.03125 C 13.601562 23.03125 13.570312 23.03125 13.535156 23.03125 C 13.34375 23.039062 13.320312 23.035156 13.148438 22.941406 Z M 13.148438 22.941406 "/>
<path style=" stroke:none;fill-rule:nonzero;fill:rgb(92.54902%,13.725491%,96.470588%);fill-opacity:1;" d="M 13.390625 22.679688 C 13.574219 22.582031 13.6875 22.566406 13.882812 22.542969 L 13.945312 22.582031 L 13.902344 22.625 C 13.691406 22.601562 13.574219 22.804688 13.390625 22.679688 Z M 13.390625 22.679688 "/>
<path style=" stroke:none;fill-rule:nonzero;fill:rgb(68.627453%,10.588235%,92.941177%);fill-opacity:1;" d="M 13.363281 24.421875 C 14.320312 24.410156 15.285156 24.421875 16.242188 24.425781 C 16.851562 24.429688 17.570312 24.410156 18.171875 24.460938 C 19.414062 25.324219 18.972656 25.097656 20.445312 25.230469 L 20.460938 25.238281 C 20.457031 25.320312 20.449219 25.429688 20.449219 25.503906 C 18.871094 25.515625 19.199219 25.648438 17.957031 24.714844 C 17.675781 24.691406 17.347656 24.699219 17.0625 24.695312 C 15.9375 24.679688 14.792969 24.609375 13.671875 24.609375 C 13.367188 24.894531 13.273438 25.199219 12.8125 25.25 C 12.789062 25.152344 12.785156 25.113281 12.773438 25.015625 C 12.960938 24.832031 13.167969 24.542969 13.363281 24.421875 Z M 13.363281 24.421875 "/>
<path style=" stroke:none;fill-rule:nonzero;fill:url(#linear0);" d="M 20.476562 22.441406 C 20.777344 22.355469 21.0625 22.269531 21.371094 22.207031 C 21.378906 22.253906 21.359375 22.359375 21.359375 22.421875 C 21.382812 22.496094 21.390625 22.539062 21.402344 22.613281 C 21.371094 22.679688 21.226562 22.972656 21.214844 23.023438 C 21.085938 22.84375 21.078125 22.863281 20.867188 22.871094 L 20.746094 22.886719 C 20.097656 22.953125 19.421875 23.03125 18.773438 23.082031 C 18.617188 23.078125 18.527344 23.074219 18.371094 23.054688 C 18.3125 23.046875 18.238281 23.007812 18.1875 22.980469 L 18.316406 22.957031 L 18.234375 22.871094 L 18.753906 22.769531 C 19.054688 22.710938 19.351562 22.652344 19.652344 22.59375 C 19.925781 22.542969 20.203125 22.488281 20.476562 22.441406 Z M 20.476562 22.441406 "/>
<path style=" stroke:none;fill-rule:nonzero;fill:rgb(9.803922%,15.686275%,20.392157%);fill-opacity:1;" d="M 20.476562 22.441406 C 20.777344 22.355469 21.0625 22.269531 21.371094 22.207031 C 21.378906 22.253906 21.359375 22.359375 21.359375 22.421875 C 20.980469 22.457031 20.335938 22.652344 19.871094 22.726562 L 19.730469 22.746094 L 19.695312 22.707031 C 19.722656 22.679688 19.710938 22.695312 19.730469 22.660156 L 19.652344 22.59375 C 19.925781 22.542969 20.203125 22.488281 20.476562 22.441406 Z M 20.476562 22.441406 "/>
<path style=" stroke:none;fill-rule:nonzero;fill:url(#linear1);" d="M 21.359375 22.421875 C 21.382812 22.496094 21.390625 22.539062 21.402344 22.613281 C 21.371094 22.679688 21.226562 22.972656 21.214844 23.023438 C 21.085938 22.84375 21.078125 22.863281 20.867188 22.871094 C 20.949219 22.769531 21.03125 22.671875 21.117188 22.578125 C 20.777344 22.703125 20.390625 22.757812 20.03125 22.789062 C 19.925781 22.761719 19.972656 22.820312 19.871094 22.769531 L 19.871094 22.726562 C 20.335938 22.652344 20.980469 22.457031 21.359375 22.421875 Z M 21.359375 22.421875 "/>
<path style=" stroke:none;fill-rule:nonzero;fill:rgb(22.745098%,12.54902%,38.82353%);fill-opacity:1;" d="M 18.753906 22.769531 C 19.054688 22.710938 19.351562 22.652344 19.652344 22.59375 L 19.730469 22.660156 C 19.710938 22.695312 19.722656 22.679688 19.695312 22.707031 L 19.730469 22.746094 C 19.261719 22.835938 18.75 22.871094 18.316406 22.957031 L 18.234375 22.871094 Z M 18.753906 22.769531 "/>
<path style=" stroke:none;fill-rule:nonzero;fill:rgb(68.627453%,10.588235%,92.941177%);fill-opacity:1;" d="M 19.871094 22.726562 L 19.871094 22.769531 C 19.972656 22.820312 19.925781 22.761719 20.03125 22.789062 C 19.792969 22.855469 18.445312 23.007812 18.371094 23.054688 C 18.3125 23.046875 18.238281 23.007812 18.1875 22.980469 L 18.316406 22.957031 C 18.75 22.871094 19.261719 22.835938 19.730469 22.746094 Z M 19.871094 22.726562 "/>
<path style=" stroke:none;fill-rule:nonzero;fill:rgb(89.803922%,8.235294%,95.686275%);fill-opacity:1;" d="M 27.496094 21.738281 C 28.1875 21.746094 28.773438 21.703125 29.507812 21.726562 C 29.417969 21.992188 29.515625 22.074219 29.234375 22.121094 C 28.804688 22.132812 28.339844 22.128906 27.910156 22.128906 C 27.765625 22.136719 27.644531 22.136719 27.503906 22.136719 L 27.488281 21.910156 C 27.460938 21.839844 27.480469 21.828125 27.496094 21.738281 Z M 27.496094 21.738281 "/>
<path style=" stroke:none;fill-rule:nonzero;fill:rgb(62.352943%,46.27451%,98.823529%);fill-opacity:1;" d="M 27.488281 21.910156 C 27.769531 21.929688 27.722656 21.933594 27.910156 22.128906 C 27.765625 22.136719 27.644531 22.136719 27.503906 22.136719 Z M 27.488281 21.910156 "/>
<path style=" stroke:none;fill-rule:nonzero;fill:rgb(47.450981%,80.392158%,98.039216%);fill-opacity:1;" d="M 18.773438 23.082031 C 19.421875 23.03125 20.097656 22.953125 20.746094 22.886719 C 20.773438 22.988281 20.746094 23.140625 20.734375 23.253906 C 20.085938 23.324219 19.339844 23.335938 18.675781 23.378906 C 18.636719 23.253906 18.691406 23.164062 18.773438 23.082031 Z M 18.773438 23.082031 "/>
<path style=" stroke:none;fill-rule:nonzero;fill:rgb(89.803922%,8.235294%,95.686275%);fill-opacity:1;" d="M 30.148438 21.652344 C 30.453125 21.652344 31.21875 21.636719 31.476562 21.667969 C 31.632812 21.839844 31.664062 21.917969 31.746094 22.132812 C 31.566406 22.054688 31.367188 22.078125 31.164062 22.078125 L 30.242188 22.085938 C 30.179688 21.964844 30.164062 21.921875 30.164062 21.792969 Z M 30.148438 21.652344 "/>
<path style=" stroke:none;fill-rule:nonzero;fill:rgb(92.54902%,13.725491%,96.470588%);fill-opacity:1;" d="M 30.164062 21.792969 C 30.222656 21.730469 30.222656 21.71875 30.304688 21.699219 C 30.535156 21.75 31.0625 21.859375 31.164062 22.078125 L 30.242188 22.085938 C 30.179688 21.964844 30.164062 21.921875 30.164062 21.792969 Z M 30.164062 21.792969 "/>
<path style=" stroke:none;fill-rule:nonzero;fill:rgb(0%,41.960785%,54.901963%);fill-opacity:1;" d="M 20.445312 25.230469 C 20.570312 24.90625 20.507812 23.800781 20.777344 23.589844 C 20.863281 23.695312 20.855469 23.929688 20.835938 24.0625 C 20.78125 24.480469 20.785156 24.875 20.789062 25.296875 C 20.6875 25.253906 20.566406 25.246094 20.460938 25.238281 Z M 20.445312 25.230469 "/>
<path style=" stroke:none;fill-rule:nonzero;fill:rgb(35.686275%,12.54902%,54.11765%);fill-opacity:1;" d="M 21.371094 22.207031 C 21.644531 22.101562 22.996094 22.0625 23.28125 22.121094 L 23.300781 22.160156 C 23.402344 22.199219 23.519531 22.269531 23.570312 22.371094 L 23.570312 22.425781 C 23.515625 22.453125 23.445312 22.4375 23.394531 22.40625 C 22.980469 22.183594 22.222656 22.160156 21.78125 22.339844 C 21.632812 22.398438 21.503906 22.492188 21.402344 22.613281 C 21.390625 22.539062 21.382812 22.496094 21.359375 22.421875 C 21.359375 22.359375 21.378906 22.253906 21.371094 22.207031 Z M 21.371094 22.207031 "/>
<path style=" stroke:none;fill-rule:nonzero;fill:rgb(0.392157%,49.411765%,63.137257%);fill-opacity:1;" d="M 24.15625 24.332031 C 24.179688 24.476562 24.183594 24.625 24.191406 24.769531 C 24.1875 25.015625 24.226562 25.523438 24.152344 25.703125 C 24.070312 25.761719 24.011719 25.746094 23.917969 25.714844 C 23.957031 25.316406 23.941406 24.777344 23.910156 24.378906 C 23.988281 24.398438 24.039062 24.417969 24.121094 24.398438 Z M 24.15625 24.332031 "/>
<path style=" stroke:none;fill-rule:nonzero;fill:rgb(54.11765%,14.901961%,78.823531%);fill-opacity:1;" d="M 29.507812 21.726562 C 29.78125 21.734375 29.894531 21.65625 30.148438 21.652344 L 30.164062 21.792969 C 30.164062 21.921875 30.179688 21.964844 30.242188 22.085938 C 29.980469 22.089844 29.460938 22.132812 29.234375 22.121094 C 29.515625 22.074219 29.417969 21.992188 29.507812 21.726562 Z M 29.507812 21.726562 "/>
<path style=" stroke:none;fill-rule:nonzero;fill:rgb(3.137255%,71.372551%,81.176472%);fill-opacity:1;" d="M 23.917969 23.46875 C 24.042969 23.746094 24.113281 24.03125 24.15625 24.332031 L 24.121094 24.398438 C 24.039062 24.417969 23.988281 24.398438 23.910156 24.378906 C 23.859375 24.082031 23.8125 23.917969 23.703125 23.640625 C 23.886719 23.609375 23.910156 23.636719 23.917969 23.46875 Z M 23.917969 23.46875 "/>
<path style=" stroke:none;fill-rule:nonzero;fill:rgb(68.627453%,10.588235%,92.941177%);fill-opacity:1;" d="M 20.867188 22.871094 C 21.078125 22.863281 21.085938 22.84375 21.214844 23.023438 C 21.070312 23.230469 20.988281 23.246094 20.734375 23.253906 C 20.746094 23.140625 20.773438 22.988281 20.746094 22.886719 Z M 20.867188 22.871094 "/>
<path style=" stroke:none;fill-rule:nonzero;fill:rgb(11.372549%,40.784314%,68.235296%);fill-opacity:1;" d="M 20.460938 25.238281 C 20.566406 25.246094 20.6875 25.253906 20.789062 25.296875 C 20.789062 25.417969 20.804688 25.402344 20.757812 25.496094 C 20.679688 25.539062 20.613281 25.519531 20.519531 25.511719 L 20.449219 25.503906 C 20.449219 25.429688 20.457031 25.320312 20.460938 25.238281 Z M 20.460938 25.238281 "/>
<path style=" stroke:none;fill-rule:nonzero;fill:rgb(0.392157%,29.803923%,39.607844%);fill-opacity:1;" d="M 24.191406 24.769531 L 24.195312 24.792969 C 24.214844 24.921875 24.214844 25.035156 24.234375 25.171875 C 24.269531 25.410156 24.371094 25.523438 24.246094 25.746094 L 24.5 25.761719 C 24.335938 25.785156 24.273438 25.78125 24.109375 25.777344 L 23.902344 25.777344 L 23.917969 25.714844 C 24.011719 25.746094 24.070312 25.761719 24.152344 25.703125 C 24.226562 25.523438 24.1875 25.015625 24.191406 24.769531 Z M 24.191406 24.769531 "/>
<path style=" stroke:none;fill-rule:nonzero;fill:rgb(68.627453%,10.588235%,92.941177%);fill-opacity:1;" d="M 26.113281 24.792969 C 26.589844 24.726562 27.222656 24.710938 27.714844 24.667969 C 27.980469 24.644531 28.699219 24.582031 28.9375 24.59375 C 28.992188 24.648438 28.996094 24.644531 29.015625 24.71875 C 28.96875 24.816406 28.910156 24.871094 28.804688 24.90625 C 28.625 24.96875 26.402344 25.085938 26.117188 25.074219 L 25.660156 25.101562 C 25.707031 24.980469 25.703125 24.953125 25.699219 24.820312 C 25.847656 24.804688 25.964844 24.796875 26.113281 24.792969 Z M 26.113281 24.792969 "/>
<path style=" stroke:none;fill-rule:nonzero;fill:rgb(35.686275%,12.54902%,54.11765%);fill-opacity:1;" d="M 25.699219 24.820312 C 25.847656 24.804688 25.964844 24.796875 26.113281 24.792969 C 25.976562 24.90625 25.84375 24.792969 25.738281 24.941406 C 25.746094 25.011719 25.734375 24.980469 25.78125 25.039062 C 25.886719 25.042969 26.023438 25.035156 26.117188 25.074219 L 25.660156 25.101562 C 25.707031 24.980469 25.703125 24.953125 25.699219 24.820312 Z M 25.699219 24.820312 "/>
<path style=" stroke:none;fill-rule:nonzero;fill:rgb(0%,41.960785%,54.901963%);fill-opacity:1;" d="M 13.359375 25.203125 C 13.621094 25.234375 14.136719 25.226562 14.414062 25.230469 C 15.078125 25.246094 15.742188 25.253906 16.40625 25.257812 C 16.921875 25.257812 17.453125 25.230469 17.964844 25.28125 C 18.074219 25.292969 18.070312 25.289062 18.15625 25.363281 L 18.15625 25.394531 C 18.09375 25.394531 18.066406 25.390625 18.007812 25.40625 L 17.972656 25.414062 C 17.535156 25.4375 13.410156 25.496094 13.167969 25.324219 L 13.183594 25.285156 C 13.25 25.25 13.292969 25.230469 13.359375 25.203125 Z M 13.359375 25.203125 "/>
<path style=" stroke:none;fill-rule:nonzero;fill:url(#linear2);" d="M 24.785156 25.128906 C 25.070312 24.8125 25.28125 24.851562 25.699219 24.820312 C 25.703125 24.953125 25.707031 24.980469 25.660156 25.101562 C 25.34375 25.113281 25.105469 25.128906 24.785156 25.128906 Z M 24.785156 25.128906 "/>
<path style=" stroke:none;fill-rule:nonzero;fill:rgb(0%,41.960785%,54.901963%);fill-opacity:1;" d="M 24.367188 22.78125 C 24.550781 22.609375 25.320312 22.351562 25.558594 22.398438 C 25.453125 22.417969 25.367188 22.417969 25.292969 22.480469 L 25.308594 22.523438 C 25.441406 22.574219 25.492188 22.519531 25.59375 22.429688 L 25.601562 22.453125 C 25.476562 22.660156 24.605469 22.6875 24.417969 22.925781 Z M 24.367188 22.78125 "/>
<path style=" stroke:none;fill-rule:nonzero;fill:rgb(0.392157%,49.411765%,63.137257%);fill-opacity:1;" d="M 24.367188 22.78125 L 24.417969 22.925781 C 24.433594 23.125 24.113281 23.316406 23.941406 23.175781 L 23.941406 23.132812 C 23.972656 23.097656 24.265625 22.875 24.367188 22.78125 Z M 24.367188 22.78125 "/>
<path style=" stroke:none;fill-rule:nonzero;fill:rgb(2.352941%,19.607843%,25.098041%);fill-opacity:1;" d="M 23.753906 21.160156 C 24.472656 20.515625 25.40625 19.128906 26.496094 19.164062 C 27.367188 19.195312 29.339844 20.296875 29.96875 20.894531 C 29.097656 20.949219 28.140625 21.03125 27.269531 21.046875 L 26.957031 21.050781 C 26.453125 21.074219 25.949219 21.101562 25.449219 21.097656 C 25.414062 21.101562 25.363281 21.097656 25.328125 21.09375 L 24.679688 21.121094 C 24.625 21.058594 24.597656 21.003906 24.519531 20.988281 C 24.378906 21.066406 24.511719 21.328125 24.582031 21.425781 C 24.605469 21.457031 24.628906 21.484375 24.652344 21.515625 C 25.625 21.527344 26.621094 21.46875 27.597656 21.464844 C 28.613281 21.460938 29.648438 21.304688 30.667969 21.34375 C 30.875 21.347656 31.398438 21.480469 31.539062 21.628906 C 31.511719 21.667969 31.53125 21.652344 31.476562 21.667969 C 31.21875 21.636719 30.453125 21.652344 30.148438 21.652344 C 29.894531 21.65625 29.78125 21.734375 29.507812 21.726562 C 28.773438 21.703125 28.1875 21.746094 27.496094 21.738281 C 25.636719 21.734375 23.742188 21.65625 21.882812 21.734375 C 21.546875 21.75 20.917969 21.882812 20.617188 22.042969 C 20.515625 22.179688 20.507812 22.269531 20.476562 22.441406 C 20.203125 22.488281 19.925781 22.542969 19.652344 22.59375 C 19.351562 22.652344 19.054688 22.710938 18.753906 22.769531 L 18.730469 22.734375 L 18.8125 22.722656 C 19.046875 22.492188 19.03125 22.625 19.21875 22.558594 C 19.007812 22.472656 18.226562 22.785156 17.941406 22.628906 C 17.851562 22.613281 17.527344 22.609375 17.414062 22.609375 C 16.9375 22.59375 16.457031 22.585938 15.980469 22.585938 L 14.652344 22.574219 C 14.488281 22.570312 14.089844 22.558594 13.945312 22.582031 L 13.882812 22.542969 C 13.789062 22.476562 13.519531 22.40625 13.339844 22.292969 C 14.191406 21.71875 16.027344 21.253906 17.070312 21.261719 L 17.613281 21.246094 C 18.371094 21.214844 19.164062 21.226562 19.921875 21.242188 C 20.496094 21.253906 21.054688 21.21875 21.628906 21.203125 Z M 23.753906 21.160156 "/>
<path style=" stroke:none;fill-rule:nonzero;fill:rgb(0.392157%,29.803923%,39.607844%);fill-opacity:1;" d="M 25.425781 20.320312 C 25.800781 20.257812 26.589844 20.167969 26.890625 20.414062 C 27.011719 20.515625 27.296875 20.828125 27.316406 20.972656 L 27.269531 21.046875 L 26.957031 21.050781 C 26.796875 20.976562 26.480469 20.589844 26.480469 20.589844 C 26.214844 20.570312 25.914062 20.613281 25.640625 20.601562 C 25.570312 20.507812 25.496094 20.414062 25.425781 20.320312 Z M 25.425781 20.320312 "/>
<path style=" stroke:none;fill-rule:nonzero;fill:rgb(62.352943%,46.27451%,98.823529%);fill-opacity:1;" d="M 17.941406 22.628906 C 18.5 22.539062 19.058594 22.410156 19.617188 22.304688 C 19.953125 22.242188 20.304688 22.167969 20.617188 22.042969 C 20.515625 22.179688 20.507812 22.269531 20.476562 22.441406 C 20.203125 22.488281 19.925781 22.542969 19.652344 22.59375 C 19.351562 22.652344 19.054688 22.710938 18.753906 22.769531 L 18.730469 22.734375 L 18.8125 22.722656 C 19.046875 22.492188 19.03125 22.625 19.21875 22.558594 C 19.007812 22.472656 18.226562 22.785156 17.941406 22.628906 Z M 17.941406 22.628906 "/>
<path style=" stroke:none;fill-rule:nonzero;fill:rgb(0.392157%,29.803923%,39.607844%);fill-opacity:1;" d="M 25.328125 21.09375 C 25.164062 21.03125 25.066406 21.085938 24.910156 21.035156 C 25.003906 20.929688 25.332031 20.929688 25.453125 20.984375 L 25.480469 21.035156 L 25.449219 21.097656 C 25.414062 21.101562 25.363281 21.097656 25.328125 21.09375 Z M 25.328125 21.09375 "/>
<path style=" stroke:none;fill-rule:nonzero;fill:rgb(9.803922%,15.686275%,20.392157%);fill-opacity:1;" d="M 17.070312 21.261719 L 17.613281 21.246094 L 17.710938 21.273438 C 17.617188 21.34375 17.207031 21.324219 17.089844 21.296875 Z M 17.070312 21.261719 "/>
<path style=" stroke:none;fill-rule:nonzero;fill:rgb(2.352941%,19.607843%,25.098041%);fill-opacity:1;" d="M 13.347656 26.085938 L 13.726562 26.085938 C 14.5 26.09375 15.597656 26.070312 16.355469 26.113281 C 16.457031 26.125 16.546875 26.132812 16.652344 26.136719 C 16.449219 26.441406 16.191406 26.699219 15.886719 26.902344 C 15.859375 26.917969 15.832031 26.929688 15.804688 26.941406 C 15.394531 27.128906 14.597656 27.121094 14.179688 26.953125 C 13.761719 26.785156 13.519531 26.488281 13.347656 26.085938 Z M 13.347656 26.085938 "/>
<path style=" stroke:none;fill-rule:nonzero;fill:rgb(0%,41.960785%,54.901963%);fill-opacity:1;" d="M 13.347656 26.085938 L 13.726562 26.085938 C 13.925781 26.328125 14.078125 26.546875 14.402344 26.632812 C 14.824219 26.742188 15.453125 26.757812 15.851562 26.566406 L 15.886719 26.902344 C 15.859375 26.917969 15.832031 26.929688 15.804688 26.941406 C 15.394531 27.128906 14.597656 27.121094 14.179688 26.953125 C 13.761719 26.785156 13.519531 26.488281 13.347656 26.085938 Z M 13.347656 26.085938 "/>
<path style=" stroke:none;fill-rule:nonzero;fill:rgb(54.11765%,14.901961%,78.823531%);fill-opacity:1;" d="M 16.355469 26.113281 C 16.457031 26.125 16.546875 26.132812 16.652344 26.136719 C 16.449219 26.441406 16.191406 26.699219 15.886719 26.902344 L 15.851562 26.566406 C 16.046875 26.433594 16.191406 26.285156 16.355469 26.113281 Z M 16.355469 26.113281 "/>
<path style=" stroke:none;fill-rule:nonzero;fill:rgb(9.803922%,15.686275%,20.392157%);fill-opacity:1;" d="M 29.773438 14.5 C 29.824219 14.457031 29.878906 14.421875 29.941406 14.398438 C 30.132812 14.328125 33.175781 14.347656 33.539062 14.375 C 33.644531 14.382812 33.730469 14.40625 33.824219 14.453125 C 33.714844 14.476562 33.648438 14.445312 33.539062 14.421875 C 33.390625 14.394531 33.222656 14.425781 33.070312 14.429688 C 32.109375 14.441406 31.140625 14.449219 30.179688 14.40625 C 30.0625 14.402344 29.898438 14.492188 29.773438 14.5 Z M 29.773438 14.5 "/>
<path style=" stroke:none;fill-rule:nonzero;fill:rgb(9.803922%,15.686275%,20.392157%);fill-opacity:1;" d="M 21.027344 26.121094 L 21.023438 26.152344 C 20.824219 26.285156 20.714844 26.203125 20.597656 26.261719 C 20.546875 26.25 20.390625 26.246094 20.328125 26.246094 C 20.003906 26.140625 19.421875 26.265625 18.996094 26.183594 C 19.484375 26.160156 20.660156 26.238281 21.027344 26.121094 Z M 21.027344 26.121094 "/>
<path style=" stroke:none;fill-rule:nonzero;fill:rgb(92.54902%,13.725491%,96.470588%);fill-opacity:1;" d="M 13.03125 22.808594 C 12.945312 22.667969 13.046875 22.578125 13.132812 22.46875 C 13.222656 22.570312 13.257812 22.617188 13.375 22.691406 C 13.332031 22.785156 13.363281 22.753906 13.292969 22.808594 C 13.234375 22.785156 13.210938 22.746094 13.167969 22.699219 L 13.097656 22.679688 C 13.007812 22.742188 13.074219 22.71875 13.03125 22.808594 Z M 13.03125 22.808594 "/>
<path style=" stroke:none;fill-rule:nonzero;fill:rgb(2.352941%,19.607843%,25.098041%);fill-opacity:1;" d="M 20.265625 19.101562 C 20.601562 19.015625 21.4375 18.960938 21.792969 18.949219 C 23.058594 18.898438 24.375 18.855469 25.636719 19 C 25.429688 19.050781 25.292969 19.101562 25.105469 19.210938 C 24.640625 19.527344 24.324219 19.875 23.933594 20.269531 C 23.773438 20.429688 23.585938 20.628906 23.40625 20.761719 C 22.808594 20.78125 22.136719 20.796875 21.539062 20.792969 C 21.238281 20.816406 20.867188 20.816406 20.558594 20.816406 C 19.652344 20.796875 18.289062 20.796875 17.40625 20.863281 C 17.941406 20.320312 19.003906 19.589844 19.695312 19.253906 C 19.863281 19.175781 20.082031 19.128906 20.265625 19.101562 Z M 20.265625 19.101562 "/>
<path style=" stroke:none;fill-rule:nonzero;fill:rgb(0.392157%,49.411765%,63.137257%);fill-opacity:1;" d="M 20.265625 19.101562 C 20.601562 19.015625 21.4375 18.960938 21.792969 18.949219 C 23.058594 18.898438 24.375 18.855469 25.636719 19 C 25.429688 19.050781 25.292969 19.101562 25.105469 19.210938 C 24.328125 19.082031 20.535156 19.230469 20.265625 19.101562 Z M 20.265625 19.101562 "/>
<path style=" stroke:none;fill-rule:nonzero;fill:rgb(0.392157%,29.803923%,39.607844%);fill-opacity:1;" d="M 20.558594 20.816406 C 20.582031 20.609375 20.667969 20.386719 20.835938 20.253906 C 21.027344 20.09375 21.367188 19.882812 21.617188 19.847656 C 21.671875 19.839844 21.914062 19.855469 21.976562 19.859375 C 21.84375 20.15625 21.632812 20.222656 21.414062 20.464844 C 21.316406 20.566406 21.261719 20.664062 21.1875 20.78125 C 21.304688 20.78125 21.421875 20.785156 21.539062 20.792969 C 21.238281 20.816406 20.867188 20.816406 20.558594 20.816406 Z M 20.558594 20.816406 "/>
<path style=" stroke:none;fill-rule:nonzero;fill:rgb(2.352941%,19.607843%,25.098041%);fill-opacity:1;" d="M 34.628906 17.761719 C 35.121094 17.800781 35.320312 18.066406 35.328125 18.542969 C 35.347656 19.636719 35.335938 20.734375 35.335938 21.828125 C 35.335938 22.183594 35.347656 22.433594 35.101562 22.71875 C 34.992188 22.808594 34.710938 22.953125 34.605469 22.855469 C 34.515625 22.773438 34.546875 22.109375 34.546875 21.988281 L 34.546875 18.839844 C 34.546875 18.585938 34.5 17.941406 34.628906 17.761719 Z M 34.628906 17.761719 "/>
<path style=" stroke:none;fill-rule:nonzero;fill:rgb(7.058824%,95.686275%,98.823529%);fill-opacity:1;" d="M 30.703125 15.617188 C 31.4375 15.585938 32.222656 15.613281 32.960938 15.625 C 33.539062 15.617188 33.4375 16.292969 33.417969 16.707031 C 33.394531 17.167969 33.621094 17.992188 33.007812 18.070312 L 31.433594 18.074219 C 31.125 18.074219 30.234375 18.191406 30.226562 17.753906 C 30.21875 17.144531 30.191406 16.515625 30.238281 15.910156 C 30.257812 15.675781 30.523438 15.640625 30.703125 15.617188 Z M 30.703125 15.617188 "/>
<path style=" stroke:none;fill-rule:nonzero;fill:rgb(2.352941%,19.607843%,25.098041%);fill-opacity:1;" d="M 30.707031 16.078125 C 31.445312 16.066406 32.210938 16.074219 32.953125 16.074219 L 32.953125 17.605469 C 32.578125 17.59375 32.199219 17.589844 31.824219 17.59375 C 31.578125 17.59375 30.957031 17.617188 30.746094 17.558594 C 30.667969 17.382812 30.703125 16.351562 30.707031 16.078125 Z M 30.707031 16.078125 "/>
<path style=" stroke:none;fill-rule:nonzero;fill:url(#linear3);" d="M 22.617188 23.53125 C 22.992188 23.503906 23.296875 23.707031 23.425781 24.058594 C 23.5 24.230469 23.550781 24.410156 23.585938 24.59375 C 23.679688 25.148438 23.597656 25.96875 23.269531 26.449219 C 23.085938 26.714844 22.699219 26.855469 22.433594 26.625 C 21.765625 26.042969 21.765625 24.410156 22.296875 23.765625 C 22.386719 23.632812 22.476562 23.601562 22.617188 23.53125 Z M 22.617188 23.53125 "/>
<path style=" stroke:none;fill-rule:nonzero;fill:rgb(2.352941%,19.607843%,25.098041%);fill-opacity:1;" d="M 22.761719 23.847656 C 23.039062 23.90625 23.089844 24.019531 23.21875 24.265625 C 23.417969 24.882812 23.386719 25.664062 23.023438 26.21875 C 22.984375 26.277344 22.882812 26.351562 22.808594 26.347656 C 22.320312 26.34375 22.226562 25.625 22.203125 25.253906 C 22.179688 24.792969 22.261719 24.277344 22.574219 23.933594 C 22.632812 23.902344 22.699219 23.875 22.761719 23.847656 Z M 22.761719 23.847656 "/>
<path style=" stroke:none;fill-rule:nonzero;fill:rgb(22.745098%,12.54902%,38.82353%);fill-opacity:1;" d="M 22.71875 24.933594 C 22.785156 24.894531 22.863281 24.898438 22.929688 24.9375 C 22.992188 24.976562 23.027344 25.046875 23.027344 25.121094 C 23.023438 25.195312 22.980469 25.261719 22.914062 25.296875 C 22.8125 25.347656 22.691406 25.308594 22.636719 25.207031 C 22.585938 25.109375 22.621094 24.988281 22.71875 24.933594 Z M 22.71875 24.933594 "/>
<path style=" stroke:none;fill-rule:nonzero;fill:rgb(35.686275%,12.54902%,54.11765%);fill-opacity:1;" d="M 22.617188 23.53125 C 22.992188 23.503906 23.296875 23.707031 23.425781 24.058594 C 23.398438 24.113281 23.417969 24.160156 23.429688 24.21875 C 23.382812 24.300781 23.414062 24.265625 23.324219 24.320312 C 23.261719 24.296875 23.285156 24.308594 23.238281 24.253906 L 23.21875 24.265625 C 23.089844 24.019531 23.039062 23.90625 22.761719 23.847656 C 22.710938 23.824219 22.710938 23.820312 22.671875 23.78125 C 22.660156 23.675781 22.648438 23.636719 22.617188 23.53125 Z M 22.617188 23.53125 "/>
<path style=" stroke:none;fill-rule:nonzero;fill:rgb(54.11765%,14.901961%,78.823531%);fill-opacity:1;" d="M 22.296875 23.765625 C 22.386719 23.632812 22.476562 23.601562 22.617188 23.53125 C 22.648438 23.636719 22.660156 23.675781 22.671875 23.78125 C 22.710938 23.820312 22.710938 23.824219 22.761719 23.847656 C 22.699219 23.875 22.632812 23.902344 22.574219 23.933594 C 22.417969 23.859375 22.558594 23.855469 22.492188 23.699219 L 22.441406 23.691406 C 22.398438 23.71875 22.378906 23.730469 22.332031 23.75 Z M 22.296875 23.765625 "/>
<path style=" stroke:none;fill-rule:nonzero;fill:rgb(54.11765%,14.901961%,78.823531%);fill-opacity:1;" d="M 30.316406 26.117188 C 29.988281 25.535156 30.023438 24.773438 30.15625 24.117188 C 30.300781 23.429688 30.917969 23.296875 31.230469 23.921875 C 31.488281 24.441406 31.445312 25.726562 31.101562 26.238281 C 31.050781 26.316406 30.984375 26.390625 30.898438 26.4375 C 30.808594 26.484375 30.699219 26.488281 30.601562 26.449219 C 30.457031 26.394531 30.375 26.253906 30.316406 26.117188 Z M 30.316406 26.117188 "/>
<path style=" stroke:none;fill-rule:nonzero;fill:rgb(68.627453%,10.588235%,92.941177%);fill-opacity:1;" d="M 30.316406 26.117188 L 30.363281 26.128906 L 30.394531 26.207031 L 30.425781 26.207031 L 30.46875 26.15625 C 30.742188 26.21875 30.816406 26.242188 31.101562 26.238281 C 31.050781 26.316406 30.984375 26.390625 30.898438 26.4375 C 30.808594 26.484375 30.699219 26.488281 30.601562 26.449219 C 30.457031 26.394531 30.375 26.253906 30.316406 26.117188 Z M 30.316406 26.117188 "/>
<path style=" stroke:none;fill-rule:nonzero;fill:rgb(2.352941%,19.607843%,25.098041%);fill-opacity:1;" d="M 30.6875 23.832031 C 31.152344 23.804688 31.140625 24.617188 31.136719 24.933594 C 31.132812 25.316406 31.117188 25.867188 30.746094 26.082031 C 30.242188 25.960938 30.265625 24.902344 30.335938 24.511719 C 30.390625 24.21875 30.449219 24.015625 30.6875 23.832031 Z M 30.6875 23.832031 "/>
<path style=" stroke:none;fill-rule:nonzero;fill:rgb(35.686275%,12.54902%,54.11765%);fill-opacity:1;" d="M 30.683594 24.710938 C 30.835938 24.796875 30.746094 25.015625 30.699219 25.144531 C 30.644531 25.117188 30.664062 25.128906 30.621094 25.078125 C 30.578125 24.925781 30.621094 24.855469 30.683594 24.710938 Z M 30.683594 24.710938 "/>
<path style=" stroke:none;fill-rule:nonzero;fill:rgb(0%,41.960785%,54.901963%);fill-opacity:1;" d="M 20.328125 26.246094 C 20.390625 26.246094 20.546875 26.25 20.597656 26.261719 C 20.820312 26.441406 21.027344 26.734375 21.3125 26.796875 C 21.527344 26.839844 21.839844 26.820312 22.058594 26.8125 L 22.078125 26.78125 L 22.03125 26.664062 L 22.054688 26.648438 C 22.257812 26.6875 22.296875 26.757812 22.476562 26.824219 C 22.800781 26.945312 23.179688 26.792969 23.476562 26.664062 C 23.152344 27.273438 22.679688 27.1875 22.097656 27.195312 C 21.125 27.203125 20.769531 27.199219 20.328125 26.246094 Z M 20.328125 26.246094 "/>
<path style=" stroke:none;fill-rule:nonzero;fill:url(#linear4);" d="M 28.417969 26.097656 C 28.507812 26.101562 28.667969 26.097656 28.753906 26.105469 C 28.992188 26.34375 29.335938 26.628906 29.628906 26.800781 C 30.3125 26.734375 30.761719 26.851562 31.300781 26.402344 C 31.277344 26.449219 31.25 26.496094 31.222656 26.539062 C 31.070312 26.792969 30.820312 26.972656 30.53125 27.035156 C 30.253906 27.101562 29.652344 27.082031 29.371094 27.035156 C 28.976562 26.964844 28.496094 26.492188 28.417969 26.097656 Z M 28.417969 26.097656 "/>
<path style=" stroke:none;fill-rule:nonzero;fill:rgb(3.137255%,71.372551%,81.176472%);fill-opacity:1;" d="M 31.75 23.5 C 31.902344 23.792969 31.941406 24.34375 32.011719 24.425781 C 32.027344 24.710938 31.914062 25.15625 31.933594 25.359375 C 31.886719 25.40625 31.746094 25.488281 31.675781 25.507812 C 31.664062 25.398438 31.722656 25.046875 31.722656 24.890625 C 31.71875 24.441406 31.625 24.097656 31.554688 23.675781 L 31.574219 23.679688 C 31.632812 23.761719 31.609375 23.835938 31.667969 23.953125 C 31.746094 23.976562 31.707031 23.976562 31.792969 23.9375 C 31.84375 23.867188 31.832031 23.90625 31.835938 23.820312 C 31.765625 23.722656 31.742188 23.621094 31.75 23.5 Z M 31.75 23.5 "/>
</g>
</svg>
